<mxfile host="app.diagrams.net" agent="Mozilla/5.0 (Windows NT 10.0; Win64; x64) AppleWebKit/537.36 (KHTML, like Gecko) Chrome/135.0.0.0 Safari/537.36" version="26.2.12">
  <diagram id="prtHgNgQTEPvFCAcTncT" name="Page-1">
    <mxGraphModel dx="832" dy="533" grid="1" gridSize="10" guides="1" tooltips="1" connect="1" arrows="1" fold="1" page="1" pageScale="1" pageWidth="827" pageHeight="1169" math="0" shadow="0">
      <root>
        <mxCell id="0" />
        <mxCell id="1" parent="0" />
        <mxCell id="50IR2CZpl-pLC9HTD3vb-2" value="" style="rounded=0;whiteSpace=wrap;html=1;" vertex="1" parent="1">
          <mxGeometry x="140" y="250" width="120" height="60" as="geometry" />
        </mxCell>
        <mxCell id="50IR2CZpl-pLC9HTD3vb-3" value="" style="rounded=0;whiteSpace=wrap;html=1;" vertex="1" parent="1">
          <mxGeometry x="540" y="250" width="120" height="60" as="geometry" />
        </mxCell>
        <mxCell id="50IR2CZpl-pLC9HTD3vb-4" value="" style="rounded=0;whiteSpace=wrap;html=1;" vertex="1" parent="1">
          <mxGeometry x="160" y="560" width="120" height="60" as="geometry" />
        </mxCell>
        <mxCell id="50IR2CZpl-pLC9HTD3vb-5" value="" style="rounded=0;whiteSpace=wrap;html=1;" vertex="1" parent="1">
          <mxGeometry x="550" y="560" width="120" height="60" as="geometry" />
        </mxCell>
        <mxCell id="50IR2CZpl-pLC9HTD3vb-6" value="" style="rhombus;whiteSpace=wrap;html=1;" vertex="1" parent="1">
          <mxGeometry x="170" y="390" width="70" height="60" as="geometry" />
        </mxCell>
        <mxCell id="50IR2CZpl-pLC9HTD3vb-7" value="" style="rhombus;whiteSpace=wrap;html=1;" vertex="1" parent="1">
          <mxGeometry x="379" y="410" width="70" height="60" as="geometry" />
        </mxCell>
        <mxCell id="50IR2CZpl-pLC9HTD3vb-8" value="" style="rhombus;whiteSpace=wrap;html=1;" vertex="1" parent="1">
          <mxGeometry x="570" y="390" width="70" height="60" as="geometry" />
        </mxCell>
        <mxCell id="50IR2CZpl-pLC9HTD3vb-9" value="" style="rhombus;whiteSpace=wrap;html=1;" vertex="1" parent="1">
          <mxGeometry x="370" y="250" width="70" height="60" as="geometry" />
        </mxCell>
        <mxCell id="50IR2CZpl-pLC9HTD3vb-10" value="" style="endArrow=none;html=1;rounded=0;exitX=1;exitY=0.5;exitDx=0;exitDy=0;entryX=0;entryY=0.5;entryDx=0;entryDy=0;" edge="1" parent="1" source="50IR2CZpl-pLC9HTD3vb-2" target="50IR2CZpl-pLC9HTD3vb-9">
          <mxGeometry width="50" height="50" relative="1" as="geometry">
            <mxPoint x="290" y="330" as="sourcePoint" />
            <mxPoint x="340" y="280" as="targetPoint" />
          </mxGeometry>
        </mxCell>
        <mxCell id="50IR2CZpl-pLC9HTD3vb-11" value="" style="endArrow=none;html=1;rounded=0;exitX=1;exitY=0.5;exitDx=0;exitDy=0;entryX=0;entryY=0.5;entryDx=0;entryDy=0;" edge="1" parent="1" source="50IR2CZpl-pLC9HTD3vb-9" target="50IR2CZpl-pLC9HTD3vb-3">
          <mxGeometry width="50" height="50" relative="1" as="geometry">
            <mxPoint x="500" y="330" as="sourcePoint" />
            <mxPoint x="500" y="280" as="targetPoint" />
          </mxGeometry>
        </mxCell>
        <mxCell id="50IR2CZpl-pLC9HTD3vb-12" value="" style="endArrow=none;html=1;rounded=0;entryX=0.5;entryY=1;entryDx=0;entryDy=0;exitX=0.5;exitY=0;exitDx=0;exitDy=0;" edge="1" parent="1" source="50IR2CZpl-pLC9HTD3vb-6" target="50IR2CZpl-pLC9HTD3vb-2">
          <mxGeometry width="50" height="50" relative="1" as="geometry">
            <mxPoint x="180" y="380" as="sourcePoint" />
            <mxPoint x="230" y="330" as="targetPoint" />
          </mxGeometry>
        </mxCell>
        <mxCell id="50IR2CZpl-pLC9HTD3vb-13" value="" style="endArrow=none;html=1;rounded=0;exitX=0.389;exitY=-0.048;exitDx=0;exitDy=0;exitPerimeter=0;entryX=0.5;entryY=1;entryDx=0;entryDy=0;" edge="1" parent="1" source="50IR2CZpl-pLC9HTD3vb-4" target="50IR2CZpl-pLC9HTD3vb-6">
          <mxGeometry width="50" height="50" relative="1" as="geometry">
            <mxPoint x="170" y="520" as="sourcePoint" />
            <mxPoint x="220" y="470" as="targetPoint" />
          </mxGeometry>
        </mxCell>
        <mxCell id="50IR2CZpl-pLC9HTD3vb-14" value="" style="endArrow=none;html=1;rounded=0;entryX=0;entryY=0;entryDx=0;entryDy=0;" edge="1" parent="1" target="50IR2CZpl-pLC9HTD3vb-7">
          <mxGeometry width="50" height="50" relative="1" as="geometry">
            <mxPoint x="300" y="350" as="sourcePoint" />
            <mxPoint x="340" y="430" as="targetPoint" />
          </mxGeometry>
        </mxCell>
        <mxCell id="50IR2CZpl-pLC9HTD3vb-15" value="" style="endArrow=none;html=1;rounded=0;exitX=1;exitY=1;exitDx=0;exitDy=0;entryX=0;entryY=0;entryDx=0;entryDy=0;" edge="1" parent="1" source="50IR2CZpl-pLC9HTD3vb-7" target="50IR2CZpl-pLC9HTD3vb-5">
          <mxGeometry width="50" height="50" relative="1" as="geometry">
            <mxPoint x="370" y="360" as="sourcePoint" />
            <mxPoint x="540" y="550" as="targetPoint" />
          </mxGeometry>
        </mxCell>
        <mxCell id="50IR2CZpl-pLC9HTD3vb-16" value="" style="endArrow=none;html=1;rounded=0;exitX=0.5;exitY=0;exitDx=0;exitDy=0;entryX=0.5;entryY=1;entryDx=0;entryDy=0;" edge="1" parent="1" source="50IR2CZpl-pLC9HTD3vb-8" target="50IR2CZpl-pLC9HTD3vb-3">
          <mxGeometry width="50" height="50" relative="1" as="geometry">
            <mxPoint x="550" y="380" as="sourcePoint" />
            <mxPoint x="600" y="330" as="targetPoint" />
          </mxGeometry>
        </mxCell>
        <mxCell id="50IR2CZpl-pLC9HTD3vb-17" value="" style="endArrow=none;html=1;rounded=0;exitX=0.5;exitY=0;exitDx=0;exitDy=0;entryX=0.5;entryY=1;entryDx=0;entryDy=0;" edge="1" parent="1" source="50IR2CZpl-pLC9HTD3vb-5" target="50IR2CZpl-pLC9HTD3vb-8">
          <mxGeometry width="50" height="50" relative="1" as="geometry">
            <mxPoint x="370" y="360" as="sourcePoint" />
            <mxPoint x="420" y="310" as="targetPoint" />
          </mxGeometry>
        </mxCell>
        <mxCell id="50IR2CZpl-pLC9HTD3vb-18" value="Medico" style="text;html=1;align=center;verticalAlign=middle;whiteSpace=wrap;rounded=0;" vertex="1" parent="1">
          <mxGeometry x="170" y="265" width="60" height="30" as="geometry" />
        </mxCell>
        <mxCell id="50IR2CZpl-pLC9HTD3vb-19" value="Consulta" style="text;html=1;align=center;verticalAlign=middle;whiteSpace=wrap;rounded=0;" vertex="1" parent="1">
          <mxGeometry x="570" y="265" width="60" height="30" as="geometry" />
        </mxCell>
        <mxCell id="50IR2CZpl-pLC9HTD3vb-20" value="Especialidade" style="text;html=1;align=center;verticalAlign=middle;whiteSpace=wrap;rounded=0;" vertex="1" parent="1">
          <mxGeometry x="190" y="575" width="60" height="30" as="geometry" />
        </mxCell>
        <mxCell id="50IR2CZpl-pLC9HTD3vb-21" value="Paciente" style="text;html=1;align=center;verticalAlign=middle;whiteSpace=wrap;rounded=0;" vertex="1" parent="1">
          <mxGeometry x="580" y="575" width="60" height="30" as="geometry" />
        </mxCell>
        <mxCell id="50IR2CZpl-pLC9HTD3vb-22" value="tem" style="text;html=1;align=center;verticalAlign=middle;whiteSpace=wrap;rounded=0;" vertex="1" parent="1">
          <mxGeometry x="175" y="405" width="60" height="30" as="geometry" />
        </mxCell>
        <mxCell id="50IR2CZpl-pLC9HTD3vb-26" value="" style="endArrow=none;html=1;rounded=0;entryX=0;entryY=0;entryDx=0;entryDy=0;exitX=1;exitY=1;exitDx=0;exitDy=0;" edge="1" parent="1" source="50IR2CZpl-pLC9HTD3vb-2">
          <mxGeometry width="50" height="50" relative="1" as="geometry">
            <mxPoint x="260" y="310" as="sourcePoint" />
            <mxPoint x="310" y="360" as="targetPoint" />
          </mxGeometry>
        </mxCell>
        <mxCell id="50IR2CZpl-pLC9HTD3vb-27" value="faz" style="text;html=1;align=center;verticalAlign=middle;whiteSpace=wrap;rounded=0;" vertex="1" parent="1">
          <mxGeometry x="375" y="265" width="60" height="30" as="geometry" />
        </mxCell>
        <mxCell id="50IR2CZpl-pLC9HTD3vb-28" value="faz" style="text;html=1;align=center;verticalAlign=middle;whiteSpace=wrap;rounded=0;" vertex="1" parent="1">
          <mxGeometry x="575" y="405" width="60" height="30" as="geometry" />
        </mxCell>
        <mxCell id="50IR2CZpl-pLC9HTD3vb-31" value="atende" style="text;html=1;align=center;verticalAlign=middle;whiteSpace=wrap;rounded=0;" vertex="1" parent="1">
          <mxGeometry x="375" y="425" width="60" height="30" as="geometry" />
        </mxCell>
        <mxCell id="50IR2CZpl-pLC9HTD3vb-32" value="" style="ellipse;whiteSpace=wrap;html=1;aspect=fixed;" vertex="1" parent="1">
          <mxGeometry x="600" y="770" width="20" height="20" as="geometry" />
        </mxCell>
        <mxCell id="50IR2CZpl-pLC9HTD3vb-33" value="" style="ellipse;whiteSpace=wrap;html=1;aspect=fixed;" vertex="1" parent="1">
          <mxGeometry x="600" y="730" width="20" height="20" as="geometry" />
        </mxCell>
        <mxCell id="50IR2CZpl-pLC9HTD3vb-34" value="" style="ellipse;whiteSpace=wrap;html=1;aspect=fixed;" vertex="1" parent="1">
          <mxGeometry x="600" y="690" width="20" height="20" as="geometry" />
        </mxCell>
        <mxCell id="50IR2CZpl-pLC9HTD3vb-35" value="" style="ellipse;whiteSpace=wrap;html=1;aspect=fixed;" vertex="1" parent="1">
          <mxGeometry x="600" y="650" width="20" height="20" as="geometry" />
        </mxCell>
        <mxCell id="50IR2CZpl-pLC9HTD3vb-36" value="" style="ellipse;whiteSpace=wrap;html=1;aspect=fixed;" vertex="1" parent="1">
          <mxGeometry x="210" y="680" width="20" height="20" as="geometry" />
        </mxCell>
        <mxCell id="50IR2CZpl-pLC9HTD3vb-37" value="" style="ellipse;whiteSpace=wrap;html=1;aspect=fixed;" vertex="1" parent="1">
          <mxGeometry x="210" y="640" width="20" height="20" as="geometry" />
        </mxCell>
        <mxCell id="50IR2CZpl-pLC9HTD3vb-38" value="" style="ellipse;whiteSpace=wrap;html=1;aspect=fixed;" vertex="1" parent="1">
          <mxGeometry x="190" y="40" width="20" height="20" as="geometry" />
        </mxCell>
        <mxCell id="50IR2CZpl-pLC9HTD3vb-39" value="" style="ellipse;whiteSpace=wrap;html=1;aspect=fixed;" vertex="1" parent="1">
          <mxGeometry x="190" y="80" width="20" height="20" as="geometry" />
        </mxCell>
        <mxCell id="50IR2CZpl-pLC9HTD3vb-40" value="" style="ellipse;whiteSpace=wrap;html=1;aspect=fixed;" vertex="1" parent="1">
          <mxGeometry x="190" y="120" width="20" height="20" as="geometry" />
        </mxCell>
        <mxCell id="50IR2CZpl-pLC9HTD3vb-41" value="" style="ellipse;whiteSpace=wrap;html=1;aspect=fixed;" vertex="1" parent="1">
          <mxGeometry x="190" y="165" width="20" height="20" as="geometry" />
        </mxCell>
        <mxCell id="50IR2CZpl-pLC9HTD3vb-42" value="" style="ellipse;whiteSpace=wrap;html=1;aspect=fixed;" vertex="1" parent="1">
          <mxGeometry x="190" y="210" width="20" height="20" as="geometry" />
        </mxCell>
        <mxCell id="50IR2CZpl-pLC9HTD3vb-43" value="" style="ellipse;whiteSpace=wrap;html=1;aspect=fixed;" vertex="1" parent="1">
          <mxGeometry x="590" y="50" width="20" height="20" as="geometry" />
        </mxCell>
        <mxCell id="50IR2CZpl-pLC9HTD3vb-44" value="" style="ellipse;whiteSpace=wrap;html=1;aspect=fixed;" vertex="1" parent="1">
          <mxGeometry x="590" y="90" width="20" height="20" as="geometry" />
        </mxCell>
        <mxCell id="50IR2CZpl-pLC9HTD3vb-45" value="" style="ellipse;whiteSpace=wrap;html=1;aspect=fixed;" vertex="1" parent="1">
          <mxGeometry x="590" y="130" width="20" height="20" as="geometry" />
        </mxCell>
        <mxCell id="50IR2CZpl-pLC9HTD3vb-46" value="" style="ellipse;whiteSpace=wrap;html=1;aspect=fixed;" vertex="1" parent="1">
          <mxGeometry x="590" y="170" width="20" height="20" as="geometry" />
        </mxCell>
        <mxCell id="50IR2CZpl-pLC9HTD3vb-47" value="" style="ellipse;whiteSpace=wrap;html=1;aspect=fixed;" vertex="1" parent="1">
          <mxGeometry x="590" y="210" width="20" height="20" as="geometry" />
        </mxCell>
        <mxCell id="50IR2CZpl-pLC9HTD3vb-53" value="" style="endArrow=none;html=1;rounded=0;entryX=0.5;entryY=1;entryDx=0;entryDy=0;exitX=0.5;exitY=0;exitDx=0;exitDy=0;" edge="1" parent="1" source="50IR2CZpl-pLC9HTD3vb-3" target="50IR2CZpl-pLC9HTD3vb-43">
          <mxGeometry width="50" height="50" relative="1" as="geometry">
            <mxPoint x="340" y="200" as="sourcePoint" />
            <mxPoint x="390" y="150" as="targetPoint" />
          </mxGeometry>
        </mxCell>
        <mxCell id="50IR2CZpl-pLC9HTD3vb-54" value="hora" style="text;html=1;align=center;verticalAlign=middle;whiteSpace=wrap;rounded=0;" vertex="1" parent="1">
          <mxGeometry x="620" y="85" width="60" height="30" as="geometry" />
        </mxCell>
        <mxCell id="50IR2CZpl-pLC9HTD3vb-56" value="data" style="text;html=1;align=center;verticalAlign=middle;whiteSpace=wrap;rounded=0;" vertex="1" parent="1">
          <mxGeometry x="620" y="130" width="60" height="30" as="geometry" />
        </mxCell>
        <mxCell id="50IR2CZpl-pLC9HTD3vb-57" value="valor" style="text;html=1;align=center;verticalAlign=middle;whiteSpace=wrap;rounded=0;" vertex="1" parent="1">
          <mxGeometry x="620" y="165" width="60" height="30" as="geometry" />
        </mxCell>
        <mxCell id="50IR2CZpl-pLC9HTD3vb-58" value="diaginostico" style="text;html=1;align=center;verticalAlign=middle;whiteSpace=wrap;rounded=0;" vertex="1" parent="1">
          <mxGeometry x="620" y="211" width="60" height="30" as="geometry" />
        </mxCell>
        <mxCell id="50IR2CZpl-pLC9HTD3vb-62" value="Id" style="text;html=1;align=center;verticalAlign=middle;whiteSpace=wrap;rounded=0;" vertex="1" parent="1">
          <mxGeometry x="620" y="50" width="60" height="30" as="geometry" />
        </mxCell>
        <mxCell id="50IR2CZpl-pLC9HTD3vb-67" value="" style="ellipse;whiteSpace=wrap;html=1;aspect=fixed;" vertex="1" parent="1">
          <mxGeometry x="600" y="810" width="20" height="20" as="geometry" />
        </mxCell>
        <mxCell id="50IR2CZpl-pLC9HTD3vb-68" value="" style="ellipse;whiteSpace=wrap;html=1;aspect=fixed;" vertex="1" parent="1">
          <mxGeometry x="600" y="850" width="20" height="20" as="geometry" />
        </mxCell>
        <mxCell id="50IR2CZpl-pLC9HTD3vb-69" value="" style="ellipse;whiteSpace=wrap;html=1;aspect=fixed;" vertex="1" parent="1">
          <mxGeometry x="600" y="890" width="20" height="20" as="geometry" />
        </mxCell>
        <mxCell id="50IR2CZpl-pLC9HTD3vb-70" value="email" style="text;html=1;align=center;verticalAlign=middle;whiteSpace=wrap;rounded=0;" vertex="1" parent="1">
          <mxGeometry x="210" y="35" width="60" height="30" as="geometry" />
        </mxCell>
        <mxCell id="50IR2CZpl-pLC9HTD3vb-71" value="morada" style="text;html=1;align=center;verticalAlign=middle;whiteSpace=wrap;rounded=0;" vertex="1" parent="1">
          <mxGeometry x="210" y="80" width="60" height="30" as="geometry" />
        </mxCell>
        <mxCell id="50IR2CZpl-pLC9HTD3vb-72" value="telefone" style="text;html=1;align=center;verticalAlign=middle;whiteSpace=wrap;rounded=0;" vertex="1" parent="1">
          <mxGeometry x="210" y="120" width="60" height="30" as="geometry" />
        </mxCell>
        <mxCell id="50IR2CZpl-pLC9HTD3vb-73" value="nome" style="text;html=1;align=center;verticalAlign=middle;whiteSpace=wrap;rounded=0;" vertex="1" parent="1">
          <mxGeometry x="210" y="165" width="60" height="30" as="geometry" />
        </mxCell>
        <mxCell id="50IR2CZpl-pLC9HTD3vb-74" value="Id" style="text;html=1;align=center;verticalAlign=middle;whiteSpace=wrap;rounded=0;" vertex="1" parent="1">
          <mxGeometry x="210" y="205" width="60" height="30" as="geometry" />
        </mxCell>
        <mxCell id="50IR2CZpl-pLC9HTD3vb-75" value="Id" style="text;html=1;align=center;verticalAlign=middle;whiteSpace=wrap;rounded=0;" vertex="1" parent="1">
          <mxGeometry x="230" y="635" width="60" height="30" as="geometry" />
        </mxCell>
        <mxCell id="50IR2CZpl-pLC9HTD3vb-76" value="Nome" style="text;html=1;align=center;verticalAlign=middle;whiteSpace=wrap;rounded=0;" vertex="1" parent="1">
          <mxGeometry x="230" y="675" width="60" height="30" as="geometry" />
        </mxCell>
        <mxCell id="50IR2CZpl-pLC9HTD3vb-77" value="Id" style="text;html=1;align=center;verticalAlign=middle;whiteSpace=wrap;rounded=0;" vertex="1" parent="1">
          <mxGeometry x="630" y="650" width="60" height="30" as="geometry" />
        </mxCell>
        <mxCell id="50IR2CZpl-pLC9HTD3vb-78" value="nome" style="text;html=1;align=center;verticalAlign=middle;whiteSpace=wrap;rounded=0;" vertex="1" parent="1">
          <mxGeometry x="630" y="690" width="60" height="30" as="geometry" />
        </mxCell>
        <mxCell id="50IR2CZpl-pLC9HTD3vb-79" value="cartao cidadao" style="text;html=1;align=center;verticalAlign=middle;whiteSpace=wrap;rounded=0;" vertex="1" parent="1">
          <mxGeometry x="630" y="725" width="60" height="30" as="geometry" />
        </mxCell>
        <mxCell id="50IR2CZpl-pLC9HTD3vb-80" value="telefone" style="text;html=1;align=center;verticalAlign=middle;whiteSpace=wrap;rounded=0;" vertex="1" parent="1">
          <mxGeometry x="630" y="765" width="60" height="30" as="geometry" />
        </mxCell>
        <mxCell id="50IR2CZpl-pLC9HTD3vb-81" value="morada" style="text;html=1;align=center;verticalAlign=middle;whiteSpace=wrap;rounded=0;" vertex="1" parent="1">
          <mxGeometry x="635" y="805" width="60" height="30" as="geometry" />
        </mxCell>
        <mxCell id="50IR2CZpl-pLC9HTD3vb-82" value="email" style="text;html=1;align=center;verticalAlign=middle;whiteSpace=wrap;rounded=0;" vertex="1" parent="1">
          <mxGeometry x="635" y="845" width="60" height="30" as="geometry" />
        </mxCell>
        <mxCell id="50IR2CZpl-pLC9HTD3vb-83" value="data de nascimento" style="text;html=1;align=center;verticalAlign=middle;whiteSpace=wrap;rounded=0;" vertex="1" parent="1">
          <mxGeometry x="635" y="890" width="60" height="30" as="geometry" />
        </mxCell>
        <mxCell id="50IR2CZpl-pLC9HTD3vb-84" value="" style="endArrow=none;html=1;rounded=0;entryX=0.5;entryY=0;entryDx=0;entryDy=0;" edge="1" parent="1" target="50IR2CZpl-pLC9HTD3vb-38">
          <mxGeometry width="50" height="50" relative="1" as="geometry">
            <mxPoint x="200" y="250" as="sourcePoint" />
            <mxPoint x="60" y="50" as="targetPoint" />
          </mxGeometry>
        </mxCell>
        <mxCell id="50IR2CZpl-pLC9HTD3vb-85" value="" style="endArrow=none;html=1;rounded=0;entryX=0.5;entryY=1;entryDx=0;entryDy=0;exitX=0.5;exitY=1;exitDx=0;exitDy=0;" edge="1" parent="1" source="50IR2CZpl-pLC9HTD3vb-36" target="50IR2CZpl-pLC9HTD3vb-4">
          <mxGeometry width="50" height="50" relative="1" as="geometry">
            <mxPoint x="120" y="730" as="sourcePoint" />
            <mxPoint x="170" y="680" as="targetPoint" />
          </mxGeometry>
        </mxCell>
        <mxCell id="50IR2CZpl-pLC9HTD3vb-86" value="" style="endArrow=none;html=1;rounded=0;entryX=0.5;entryY=1;entryDx=0;entryDy=0;exitX=0.5;exitY=1;exitDx=0;exitDy=0;" edge="1" parent="1" source="50IR2CZpl-pLC9HTD3vb-69" target="50IR2CZpl-pLC9HTD3vb-5">
          <mxGeometry width="50" height="50" relative="1" as="geometry">
            <mxPoint x="550" y="810" as="sourcePoint" />
            <mxPoint x="600" y="760" as="targetPoint" />
          </mxGeometry>
        </mxCell>
      </root>
    </mxGraphModel>
  </diagram>
</mxfile>
